<?xml version="1.0" encoding="utf-8"?>
<!-- Generator: Adobe Illustrator 25.3.1, SVG Export Plug-In . SVG Version: 6.00 Build 0)  -->
<svg version="1.1" id="Layer_1" xmlns="http://www.w3.org/2000/svg" xmlns:xlink="http://www.w3.org/1999/xlink" x="0px" y="0px"
	 viewBox="0 0 369.9 350" style="enable-background:new 0 0 369.9 350;" xml:space="preserve">
<style type="text/css">
	.st0{fill-rule:evenodd;clip-rule:evenodd;fill:#FF7300;}
</style>
<g id="Layer_1_1_">
	<path class="st0" d="M368,57.9L312.1,2c-2-1.3-4-2-6.1-2H63.8c-2,0-4,0.7-5.4,2L2.5,57.9c-2.7,2.7-3.4,6.7-1.3,10.1l117.1,177
		c-4.7,10.1-7.4,20.9-7.4,31.6c0.7,41.1,33.7,73.4,74.7,73.4c40.4-0.7,72.7-33,73.4-73.4c0-10.8-2.7-21.5-7.4-31.6L368.7,68
		C370.7,64.6,370,60.6,368,57.9z M67.1,15.5h235.6l40.4,39.7H26.8L67.1,15.5z M272.4,71.3l-87.5,131.9l0,0L97.4,71.3H272.4z
		 M22.7,71.3h55.9l88.8,133.9c-15.5,4-29.6,12.8-39.7,24.9L22.7,71.3z M184.9,334.5c-31.6,0-57.2-26.2-57.2-57.9
		s26.2-57.2,57.9-57.2s57.2,26.3,57.2,57.9C242.8,308.3,217.2,334.5,184.9,334.5L184.9,334.5z M242.1,230.2
		c-10.1-12.1-24.2-20.9-39.7-24.9l88.8-133.9h55.9L242.1,230.2z"/>
	<g>
		<path d="M176.8,301.5h26.2c2.7,0,4.7,0.7,6.1,1.3c1.3,1.3,2,2.7,2,4c0,1.3-0.7,2.7-1.3,4c-1.3,1.3-2.7,2-4.7,2h-37
			c-2.7,0-4.7-0.7-6.1-2s-2-2.7-2-4.7c0-1.3,0.7-2.7,1.3-4.7s2-3.4,2.7-4.7c4.7-4.7,8.8-8.7,12.1-12.1c3.4-3.4,6.1-5.4,7.4-6.7
			c2.7-2,4.7-4,6.7-6.1c2-2,3.4-4,4-6.1c0.7-2,1.3-4,1.3-6.1c0-2-0.7-4-1.3-6.1c-0.7-2-2.7-2.7-4-4c-2-0.7-3.4-1.3-6.1-1.3
			c-4.7,0-8.1,2-10.1,6.1c0,0.7-0.7,2-1.3,4c-0.7,2-1.3,4-2.7,5.4c-0.7,1.3-2.7,2-4,2s-3.4-0.7-4-1.3c-1.3-1.3-1.3-2.7-1.3-4.7
			s0.7-4.7,1.3-7.4c1.3-2.7,2.7-4.7,4.7-6.7s4.7-3.4,8.1-4.7c3.4-1.3,6.7-2,11.4-2c5.4,0,9.4,0.7,12.8,2.7c2,1.3,4.7,2.7,6.1,4.7
			c2,2,3.4,4,4,6.7s1.3,4.7,1.3,7.4c0,4-1.3,8.1-3.4,11.4s-4,6.1-6.1,8.1s-6.1,4.7-10.8,8.8c-4.7,4-8.8,7.4-10.1,9.4
			C178.9,299.5,177.5,300.2,176.8,301.5z"/>
	</g>
</g>
<g id="Layer_2_1_">
</g>
</svg>
