<?xml version="1.0" encoding="utf-8"?>
<!-- Generator: Adobe Illustrator 25.3.1, SVG Export Plug-In . SVG Version: 6.00 Build 0)  -->
<svg version="1.1" id="Layer_1" xmlns="http://www.w3.org/2000/svg" xmlns:xlink="http://www.w3.org/1999/xlink" x="0px" y="0px"
	 viewBox="0 0 273 258.3" style="enable-background:new 0 0 273 258.3;" xml:space="preserve">
<style type="text/css">
	.st0{fill-rule:evenodd;clip-rule:evenodd;fill:#FF7300;}
</style>
<g id="Layer_1_1_">
	<path class="st0" d="M271.6,42.7L230.4,1.5c-1.5-1-3-1.5-4.5-1.5H47.1c-1.5,0-3,0.5-4,1.5L1.9,42.7c-2,2-2.5,5-1,7.5l86.4,130.6
		c-3.5,7.5-5.5,15.4-5.5,23.3c0.5,30.3,24.8,54.1,55.1,54.1c29.8-0.5,53.6-24.3,54.1-54.1c0-7.9-2-15.9-5.5-23.3l86.4-130.6
		C273.6,47.7,273.1,44.7,271.6,42.7z M49.5,11.4h173.9l29.8,29.3H19.7L49.5,11.4z M201.1,52.7L136.5,150l0,0L71.9,52.7H201.1z
		 M16.8,52.7H58l65.6,98.9c-11.4,3-21.9,9.4-29.3,18.4L16.8,52.7z M136.5,246.9c-23.3,0-42.2-19.4-42.2-42.7s19.4-42.2,42.7-42.2
		s42.2,19.4,42.2,42.7C179.2,227.5,160.3,246.9,136.5,246.9L136.5,246.9z M178.7,169.9c-7.5-8.9-17.9-15.4-29.3-18.4L215,52.7h41.2
		L178.7,169.9z"/>
	<g>
		<path d="M135,198.2c2.5,0,4.5-0.5,6-2c1.5-1.5,2.5-3.5,2.5-6c0-2-0.5-3.5-2-5c-1.5-1.5-3-2-5.5-2c-1.5,0-3,0-4,0.5
			c-1,0.5-2,1-2.5,1.5c-0.5,0.5-1,1.5-1.5,2.5c-0.5,1-1,2-1.5,3c-0.5,0.5-0.5,1-1.5,1c-0.5,0.5-1.5,0.5-2.5,0.5s-2-0.5-3-1
			c0,0-0.5-1-0.5-2.5c0-1.5,0.5-2.5,1-4c1-1.5,2-3,3.5-4c1.5-1.5,3.5-2.5,5.5-3c2.5-1,5-1,7.5-1s4.5,0.5,6.5,1c2,0.5,3.5,1.5,5,3
			c1.5,1.5,2.5,2.5,3.5,4.5c1,1.5,1,3.5,1,5.5c0,2.5-0.5,4.5-1.5,6.5s-2.5,3.5-4.5,5c2,1,3.5,2.5,5,3.5c1.5,1.5,2.5,3,3,4.5
			c0.5,1.5,1,3.5,1,5.5c0,2.5-0.5,4.5-1.5,6.5s-2.5,4-4,5.5c-2,1.5-4,3-6.5,4s-5,1.5-7.9,1.5c-3,0-5.5-0.5-7.9-1.5
			c-2.5-1-4.5-2.5-6-4c-1.5-1.5-2.5-3.5-3.5-5s-1-3-1-4.5s0.5-2.5,1.5-3.5c1-1,2-1.5,3.5-1.5c0.5,0,1.5,0,2,0.5c0.5,0.5,1,1,1.5,1.5
			c1.5,3.5,2.5,6,4,7.5c1.5,1.5,3.5,2.5,6.5,2.5c1.5,0,3-0.5,4.5-1c1.5-1,2.5-2,3.5-3.5c1-1.5,1.5-3,1.5-5c0-3-1-5-2.5-7
			c-1.5-2-4-2.5-6.5-2.5c-0.5,0-1.5,0-2.5,0c-1,0-1.5,0-2,0c-1.5,0-2.5-0.5-3-1c-1-0.5-1-1.5-1-3c0-1,0.5-2,1.5-3c1-0.5,2-1,4-1
			C133.5,198.2,135,198.2,135,198.2z"/>
	</g>
</g>
<g id="Layer_2_1_">
</g>
</svg>
