<?xml version="1.0" encoding="utf-8"?>
<!-- Generator: Adobe Illustrator 25.3.1, SVG Export Plug-In . SVG Version: 6.00 Build 0)  -->
<svg version="1.1" id="Layer_1" xmlns="http://www.w3.org/2000/svg" xmlns:xlink="http://www.w3.org/1999/xlink" x="0px" y="0px"
	 viewBox="0 0 302.3 286" style="enable-background:new 0 0 302.3 286;" xml:space="preserve">
<style type="text/css">
	.st0{fill-rule:evenodd;clip-rule:evenodd;fill:#FF7300;}
</style>
<g id="Layer_1_1_">
	<path class="st0" d="M300.7,47.3L255.1,1.7c-1.7-1.1-3.3-1.7-4.9-1.7h-198c-1.7,0-3.3,0.6-4.4,1.7L2.1,47.3
		c-2.2,2.2-2.8,5.5-1.1,8.2l95.7,144.7c-3.9,8.2-6.1,17-6.1,25.9c0.6,33.5,27.5,59.9,61,59.9c33-0.5,59.4-27,60-60
		c0-8.8-2.2-17.6-6.1-25.9l95.7-144.6C302.9,52.8,302.4,49.5,300.7,47.3z M54.9,12.6h192.5l33,32.4H21.9L54.9,12.6z M222.6,58.3
		l-71.5,107.8l0,0L79.6,58.3H222.6z M18.6,58.3h45.7l72.6,109.4c-12.6,3.3-24.2,10.5-32.4,20.4L18.6,58.3z M151.1,273.4
		c-25.9,0-46.8-21.5-46.8-47.3s21.4-46.8,47.3-46.8s46.8,21.5,46.8,47.3C198.4,251.9,177.5,273.4,151.1,273.4L151.1,273.4z
		 M197.9,188.1c-8.2-9.9-19.8-17.1-32.5-20.4L238,58.3h45.6L197.9,188.1z"/>
	<g>
		<path d="M146.7,251.9v-40.1c-7.7,5.5-12.6,8.8-14.8,8.8c-1.1,0-2.2-0.5-3.3-1.6c-1.1-1.1-1.7-2.2-1.7-3.3c0-1.6,0.6-2.8,1.7-3.3
			c1.1-0.6,2.8-1.6,4.9-2.8c3.3-1.6,6.6-3.3,8.8-5.5c2.2-2.2,3.8-3.9,5.5-6.1c1.6-2.2,2.8-3.8,3.3-4.4c0.5-0.5,1.6-0.5,2.8-0.5
			c1.6,0,2.8,0.5,3.8,1.6c1.1,1.1,1.7,2.8,1.7,5v50.6c0,6.1-2.2,8.8-6.1,8.8c-1.7,0-3.3-0.6-4.4-1.7
			C147.3,256.3,146.7,254.1,146.7,251.9z"/>
	</g>
</g>
<g id="Layer_2_1_">
</g>
</svg>
